{"title":"Stagecoach (1939) MP-4 [Dascubadude]","uid":11957215,"size":932841232,"categoryP":"video","categoryS":"movies","magnet":"?xt=urn:btih:4700a307aad9dfbfe66a19086dc9e5ccb6605646&amp;dn=Stagecoach+%281939%29+MP-4+%5BDascubadude%5D&amp;tr=udp%3A%2F%2Ftracker.openbittorrent.com%3A80&amp;tr=udp%3A%2F%2Fopen.demonii.com%3A1337&amp;tr=udp%3A%2F%2Ftracker.coppersurfer.tk%3A6969&amp;tr=udp%3A%2F%2Fexodus.desync.com%3A6969","seeders":0,"leechers":1,"uploader":"dascuba","files":2,"time":1432464533,"description":" &lt;a href=&quot;http://ia.media-imdb.com/images/M/MV5BMTY5MDUxMTEyM15BMl5BanBnXkFtZTcwNTQ3NzE3OQ@@._V1_SX214_AL_.jpg&quot; rel=&quot;nofollow&quot; target=&quot;_NEW&quot;&gt;http://ia.media-imdb.com/images/M/MV5BMTY5MDUxMTEyM15BMl5BanBnXkFtZTcwNTQ3NzE3OQ@@._V1_SX214_AL_.jpg&lt;/a&gt;\n\n Stagecoach (1939)\nNot Rated  |  96 min  |  Adventure, Western  |  2 March 1939 (USA)\n7.9 Your rating:   -/10   Ratings: 7.9/10 from 27,698 users   \nReviews: 309 user | 101 critic\nA group of people traveling on a stagecoach find their journey complicated by the threat of Geronimo and learn something about each other in the process.\n\nDirector: John Ford\nWriters: Ernest Haycox (original story), Dudley Nichols (screen play), 1 more credit Â»\nStars: John Wayne, Claire Trevor, Andy Devine \n\nGeneral\nComplete name                            : C:UsersbillVideosWinXVideosStagecoachStagecoach (1938).mp4\nFormat                                   : MPEG-4\nFormat profile                           : Base Media\nCodec ID                                 : isom\nFile size                                : 857 MiB\nDuration                                 : 1h 31mn\nOverall bit rate                         : 1 311 Kbps\nMovie name                               : Stagecoach_Disc_1\nGenre                                    : Western\nWriting application                      : Lavf54.6.100\n\nVideo\nID                                       : 1\nFormat                                   : AVC\nFormat/Info                              : Advanced Video Codec\nFormat profile                           : Baseline@L3\nFormat settings, CABAC                   : No\nFormat settings, ReFrames                : 6 frames\nCodec ID                                 : avc1\nCodec ID/Info                            : Advanced Video Coding\nDuration                                 : 1h 31mn\nBit rate                                 : 1 196 Kbps\nWidth                                    : 720 pixels\nHeight                                   : 540 pixels\nDisplay aspect ratio                     : 4:3\nFrame rate mode                          : Constant\nFrame rate                               : 29.970 fps\nColor space                              : YUV\nChroma subsampling                       : 4:2:0\nBit depth                                : 8 bits\nScan type                                : Progressive\nBits/(Pixel*Frame)                       : 0.103\nStream size                              : 781 MiB (91%)\n\nAudio\nID                                       : 2\nFormat                                   : AAC\nFormat/Info                              : Advanced Audio Codec\nFormat profile                           : LC\nCodec ID                                 : 40\nDuration                                 : 1h 31mn\nBit rate mode                            : Constant\nBit rate                                 : 109 Kbps\nChannel(s)                               : 2 channels\nChannel(s)_Original                      : 1 channel\nChannel positions                        : Front: C\nSampling rate                            : 44.1 KHz\nCompression mode                         : Lossy\nStream size                              : 71.1 MiB (8%)","torrent":{"xt":"urn:btih:4700a307aad9dfbfe66a19086dc9e5ccb6605646","amp;dn":"Stagecoach+%281939%29+MP-4+%5BDascubadude%5D","amp;tr":["udp%3A%2F%2Ftracker.openbittorrent.com%3A80","udp%3A%2F%2Fopen.demonii.com%3A1337","udp%3A%2F%2Ftracker.coppersurfer.tk%3A6969","udp%3A%2F%2Fexodus.desync.com%3A6969"],"infoHash":"4700a307aad9dfbfe66a19086dc9e5ccb6605646","infoHashBuffer":{"type":"Buffer","data":[71,0,163,7,170,217,223,191,230,106,25,8,109,201,229,204,182,96,86,70]},"announce":[],"urlList":[]}}